<?xml version="1.0" encoding="UTF-8" standalone="no"?><!DOCTYPE svg PUBLIC "-//W3C//DTD SVG 1.1//EN" "http://www.w3.org/Graphics/SVG/1.1/DTD/svg11.dtd"><svg width="100%" height="100%" viewBox="0 0 2008 2008" version="1.1" xmlns="http://www.w3.org/2000/svg" xmlns:xlink="http://www.w3.org/1999/xlink" xml:space="preserve" xmlns:serif="http://www.serif.com/" style="fill-rule:evenodd;clip-rule:evenodd;stroke-linejoin:round;stroke-miterlimit:2;"><rect id="Artboard1" x="0" y="0" width="2007.874" height="2007.874" style="fill:none;"/><circle cx="1003.937" cy="1003.937" r="885.827"/><g><path d="M986.738,1603.472l0,-1171.259l-447.177,0l0,-32.678l928.752,0l0,32.678l-447.177,0l0,1171.259l-34.398,0Z" style="fill:#fff;fill-rule:nonzero;"/><path d="M946.817,1608.34c-76.8,0 -145.487,-18.118 -206.062,-54.355c-60.575,-36.237 -108.439,-86.535 -143.594,-150.896c-35.155,-64.36 -52.732,-137.645 -52.732,-219.853c0,-83.29 17.577,-156.574 52.732,-219.853c35.155,-63.279 83.02,-113.036 143.594,-149.273c60.575,-36.237 129.262,-54.355 206.062,-54.355c76.8,0 146.028,18.118 207.684,54.355c61.656,36.237 110.332,85.994 146.028,149.273c35.696,63.279 53.544,136.563 53.544,219.853c0,82.208 -17.848,155.493 -53.544,219.853c-35.696,64.36 -84.372,114.659 -146.028,150.896c-61.656,36.237 -130.884,54.355 -207.684,54.355Zm-407.256,-4.868l0,-1203.919l32.451,0l0,668.483l-16.225,113.577l16.225,113.577l0,308.281l-32.451,0Zm407.256,-25.961c71.391,0 135.481,-16.766 192.27,-50.299c56.789,-33.532 101.408,-80.045 133.859,-139.538c32.451,-59.493 48.676,-127.639 48.676,-204.439c0,-77.882 -16.225,-146.298 -48.676,-205.25c-32.451,-58.952 -77.07,-104.924 -133.859,-137.915c-56.789,-32.991 -120.879,-49.487 -192.27,-49.487c-71.391,0 -135.481,16.496 -192.27,49.487c-56.789,32.991 -101.408,78.963 -133.859,137.915c-32.451,58.952 -48.676,127.369 -48.676,205.25c0,76.8 16.225,144.946 48.676,204.439c32.451,59.493 77.07,106.005 133.859,139.538c56.789,33.532 120.879,50.299 192.27,50.299Z" style="fill:#fff;fill-rule:nonzero;"/></g></svg>