<?xml version="1.0" encoding="UTF-8" standalone="no"?><!DOCTYPE svg PUBLIC "-//W3C//DTD SVG 1.1//EN" "http://www.w3.org/Graphics/SVG/1.1/DTD/svg11.dtd"><svg width="100%" height="100%" viewBox="0 0 4843 1046" version="1.1" xmlns="http://www.w3.org/2000/svg" xmlns:xlink="http://www.w3.org/1999/xlink" xml:space="preserve" xmlns:serif="http://www.serif.com/" style="fill-rule:evenodd;clip-rule:evenodd;stroke-linejoin:round;stroke-miterlimit:2;"><g transform="matrix(0.989471,0,0,0.989471,-716.885735,-31.934774)"><g transform="matrix(1250,0,0,1250,640.447572,1019.477634)"><path d="M0.366,0.003c-0.047,0 -0.09,-0.011 -0.127,-0.034c-0.037,-0.022 -0.067,-0.053 -0.089,-0.093c-0.022,-0.04 -0.032,-0.085 -0.032,-0.136c0,-0.051 0.011,-0.096 0.032,-0.136c0.022,-0.039 0.051,-0.07 0.089,-0.092c0.037,-0.022 0.08,-0.034 0.127,-0.034c0.047,0 0.09,0.011 0.128,0.034c0.038,0.022 0.068,0.053 0.09,0.092c0.022,0.039 0.033,0.084 0.033,0.136c0,0.051 -0.011,0.096 -0.033,0.136c-0.022,0.04 -0.052,0.071 -0.09,0.093c-0.038,0.022 -0.081,0.034 -0.128,0.034Zm-0.251,-0.003l0,-0.742l0.02,0l0,0.412l-0.01,0.07l0.01,0.07l0,0.19l-0.02,-0Zm0.251,-0.016c0.044,0 0.084,-0.01 0.118,-0.031c0.035,-0.021 0.063,-0.049 0.083,-0.086c0.02,-0.037 0.03,-0.079 0.03,-0.126c0,-0.048 -0.01,-0.09 -0.03,-0.127c-0.02,-0.036 -0.048,-0.065 -0.083,-0.085c-0.035,-0.02 -0.075,-0.03 -0.118,-0.03c-0.044,0 -0.084,0.01 -0.118,0.03c-0.035,0.02 -0.062,0.049 -0.082,0.085c-0.02,0.036 -0.03,0.079 -0.03,0.127c0,0.047 0.01,0.089 0.03,0.126c0.02,0.037 0.047,0.065 0.082,0.086c0.035,0.021 0.075,0.031 0.118,0.031Z" style="fill-rule:nonzero;"/></g><g transform="matrix(1250,0,0,1250,1479.197572,1019.477634)"><path d="M0.228,-0l0,-0.568l-0.224,0l-0,-0.132l0.61,0l0,0.132l-0.224,0l0,0.568l-0.162,-0Z" style="fill-rule:nonzero;"/></g><g transform="matrix(1250,0,0,1250,2236.442315,1019.477634)"><path d="M0.072,-0l0,-0.538l0.149,0l-0,0.152l-0.021,-0.044c0.016,-0.038 0.041,-0.067 0.077,-0.087c0.035,-0.02 0.078,-0.029 0.129,-0.029l0,0.144c-0.007,-0.001 -0.013,-0.002 -0.018,-0.002c-0.005,-0 -0.011,-0.001 -0.017,-0.001c-0.043,0 -0.078,0.012 -0.104,0.037c-0.026,0.025 -0.039,0.062 -0.039,0.114l0,0.254l-0.156,-0Z" style="fill-rule:nonzero;"/></g><g transform="matrix(1250,0,0,1250,2726.76789,1019.477634)"><path d="M0.402,-0l0,-0.105l-0.009,-0.024l0,-0.188c0,-0.034 -0.01,-0.059 -0.031,-0.078c-0.02,-0.018 -0.052,-0.028 -0.094,-0.028c-0.028,-0 -0.056,0.004 -0.084,0.013c-0.028,0.009 -0.051,0.021 -0.071,0.036l-0.056,-0.109c0.03,-0.021 0.065,-0.037 0.106,-0.048c0.041,-0.011 0.083,-0.017 0.126,-0.017c0.082,0 0.146,0.019 0.191,0.058c0.045,0.039 0.068,0.099 0.068,0.18l0,0.307l-0.147,-0Zm-0.163,0.008c-0.042,0 -0.078,-0.007 -0.108,-0.021c-0.03,-0.014 -0.053,-0.034 -0.069,-0.058c-0.016,-0.025 -0.024,-0.052 -0.024,-0.083c0,-0.032 0.008,-0.06 0.023,-0.084c0.016,-0.024 0.04,-0.043 0.074,-0.057c0.034,-0.014 0.078,-0.021 0.133,-0.021l0.142,0l0,0.091l-0.125,0c-0.037,0 -0.062,0.006 -0.076,0.018c-0.014,0.012 -0.02,0.027 -0.02,0.046c0,0.019 0.008,0.035 0.023,0.047c0.016,0.012 0.037,0.018 0.064,0.018c0.026,0 0.05,-0.006 0.071,-0.018c0.021,-0.012 0.036,-0.03 0.045,-0.055l0.024,0.072c-0.011,0.034 -0.032,0.06 -0.062,0.078c-0.03,0.018 -0.069,0.027 -0.116,0.027Z" style="fill-rule:nonzero;"/></g><g transform="matrix(1250,0,0,1250,3502.610481,1019.477634)"><path d="M0.332,0.008c-0.058,0 -0.109,-0.012 -0.155,-0.035c-0.045,-0.024 -0.081,-0.056 -0.106,-0.098c-0.026,-0.042 -0.038,-0.09 -0.038,-0.143c0,-0.054 0.013,-0.102 0.038,-0.143c0.026,-0.041 0.061,-0.074 0.106,-0.098c0.045,-0.024 0.097,-0.035 0.155,-0.035c0.057,0 0.106,0.012 0.148,0.035c0.042,0.023 0.073,0.057 0.093,0.101l-0.12,0.065c-0.015,-0.025 -0.032,-0.044 -0.053,-0.056c-0.021,-0.012 -0.044,-0.018 -0.068,-0.018c-0.026,0 -0.05,0.006 -0.072,0.018c-0.021,0.012 -0.038,0.029 -0.051,0.051c-0.012,0.022 -0.019,0.049 -0.019,0.08c0,0.031 0.006,0.058 0.019,0.08c0.012,0.022 0.029,0.039 0.051,0.051c0.021,0.012 0.045,0.018 0.072,0.018c0.025,0 0.047,-0.006 0.068,-0.018c0.021,-0.012 0.039,-0.03 0.053,-0.056l0.12,0.065c-0.02,0.043 -0.05,0.077 -0.093,0.101c-0.042,0.024 -0.091,0.035 -0.148,0.035Z" style="fill-rule:nonzero;"/></g><g transform="matrix(1250,0,0,1250,4236.944564,1019.477634)"><path d="M0.201,-0.11l0.004,-0.191l0.251,-0.237l0.186,0l-0.242,0.245l-0.08,0.066l-0.119,0.117Zm-0.129,0.11l-0,-0.742l0.156,0l0,0.742l-0.156,-0Zm0.4,-0l-0.181,-0.226l0.097,-0.122l0.273,0.347l-0.189,-0Z" style="fill-rule:nonzero;"/></g><g transform="matrix(1250,0,0,1250,5050.871239,1019.477634)"><path d="M0.072,-0l0,-0.538l0.149,0l-0,0.152l-0.021,-0.044c0.016,-0.038 0.041,-0.067 0.077,-0.087c0.035,-0.02 0.078,-0.029 0.129,-0.029l0,0.144c-0.007,-0.001 -0.013,-0.002 -0.018,-0.002c-0.005,-0 -0.011,-0.001 -0.017,-0.001c-0.043,0 -0.078,0.012 -0.104,0.037c-0.026,0.025 -0.039,0.062 -0.039,0.114l0,0.254l-0.156,-0Z" style="fill-rule:nonzero;"/></g></g></svg>