<?xml version="1.0" encoding="UTF-8" standalone="no"?><!DOCTYPE svg PUBLIC "-//W3C//DTD SVG 1.1//EN" "http://www.w3.org/Graphics/SVG/1.1/DTD/svg11.dtd"><svg width="100%" height="100%" viewBox="0 0 2008 2008" version="1.1" xmlns="http://www.w3.org/2000/svg" xmlns:xlink="http://www.w3.org/1999/xlink" xml:space="preserve" xmlns:serif="http://www.serif.com/" style="fill-rule:evenodd;clip-rule:evenodd;stroke-linejoin:round;stroke-miterlimit:2;"><rect id="Artboard1" x="0" y="0" width="2007.874" height="2007.874" style="fill:none;"/><clipPath id="_clip1"><rect x="0" y="0" width="2007.874" height="2007.874"/></clipPath><g clip-path="url(#_clip1)"><path d="M2007.874,501.969l0,1003.937c0,277.044 -224.925,501.969 -501.969,501.969l-1003.937,0c-277.044,0 -501.969,-224.925 -501.969,-501.969l0,-1003.937c0,-277.044 224.925,-501.969 501.969,-501.969l1003.937,0c277.044,0 501.969,224.925 501.969,501.969Z"/><g><path d="M980.364,1825.67l0,-1605.348l-612.908,0l0,-44.789l1272.963,0l0,44.789l-612.908,0l0,1605.348l-47.147,0Z" style="fill:#fff;fill-rule:nonzero;"/><path d="M925.647,1832.341c-105.263,0 -199.407,-24.833 -282.432,-74.5c-83.024,-49.666 -148.629,-118.606 -196.813,-206.82c-48.184,-88.214 -72.276,-188.658 -72.276,-301.334c0,-114.159 24.092,-214.603 72.276,-301.334c48.184,-86.731 113.788,-154.93 196.813,-204.596c83.024,-49.666 177.168,-74.5 282.432,-74.5c105.263,0 200.148,24.833 284.655,74.5c84.507,49.666 151.223,117.865 200.148,204.596c48.925,86.731 73.388,187.176 73.388,301.334c0,112.676 -24.463,213.121 -73.388,301.334c-48.925,88.214 -115.641,157.154 -200.148,206.82c-84.507,49.666 -179.392,74.5 -284.655,74.5Zm-558.191,-6.672l0,-1650.112l44.477,0l0,916.235l-22.239,155.671l22.239,155.671l0,422.535l-44.477,0Zm558.191,-35.582c97.85,0 185.693,-22.98 263.529,-68.94c77.835,-45.96 138.992,-109.711 183.469,-191.253c44.477,-81.542 66.716,-174.944 66.716,-280.208c0,-106.746 -22.239,-200.519 -66.716,-281.32c-44.477,-80.801 -105.634,-143.81 -183.469,-189.029c-77.835,-45.219 -165.678,-67.828 -263.529,-67.828c-97.85,0 -185.693,22.609 -263.529,67.828c-77.835,45.219 -138.992,108.228 -183.469,189.029c-44.477,80.801 -66.716,174.574 -66.716,281.32c0,105.263 22.239,198.666 66.716,280.208c44.477,81.542 105.634,145.293 183.469,191.253c77.835,45.96 165.678,68.94 263.529,68.94Z" style="fill:#fff;fill-rule:nonzero;"/></g></g></svg>