<?xml version="1.0" encoding="UTF-8" standalone="no"?><!DOCTYPE svg PUBLIC "-//W3C//DTD SVG 1.1//EN" "http://www.w3.org/Graphics/SVG/1.1/DTD/svg11.dtd"><svg width="100%" height="100%" viewBox="0 0 2008 2008" version="1.1" xmlns="http://www.w3.org/2000/svg" xmlns:xlink="http://www.w3.org/1999/xlink" xml:space="preserve" xmlns:serif="http://www.serif.com/" style="fill-rule:evenodd;clip-rule:evenodd;stroke-linejoin:round;stroke-miterlimit:2;"><rect id="Artboard1" x="0" y="0" width="2007.874" height="2007.874" style="fill:none;"/><g><circle cx="1003.937" cy="1003.937" r="885.827"/><g><path d="M990.776,1462.705l0,-896.254l-342.182,0l0,-25.006l710.686,0l0,25.006l-342.182,0l0,896.254l-26.322,0Z" style="fill:#fff;fill-rule:nonzero;"/><path d="M960.228,1466.429c-58.768,0 -111.328,-13.864 -157.68,-41.593c-46.352,-27.728 -82.978,-66.217 -109.879,-115.466c-26.901,-49.249 -40.351,-105.327 -40.351,-168.233c0,-63.734 13.45,-119.812 40.351,-168.233c26.901,-48.421 63.527,-86.496 109.879,-114.225c46.352,-27.728 98.912,-41.593 157.68,-41.593c58.768,0 111.741,13.864 158.921,41.593c47.18,27.728 84.427,65.803 111.741,114.225c27.315,48.421 40.972,104.499 40.972,168.233c0,62.906 -13.657,118.984 -40.972,168.233c-27.315,49.249 -64.562,87.738 -111.741,115.466c-47.18,27.728 -100.153,41.593 -158.921,41.593Zm-311.634,-3.725l0,-921.246l24.831,0l0,511.527l-12.416,86.91l12.416,86.91l0,235.898l-24.831,0Zm311.634,-19.865c54.629,0 103.671,-12.83 147.126,-38.489c43.455,-25.659 77.598,-61.251 102.43,-106.775c24.831,-45.524 37.247,-97.67 37.247,-156.438c0,-59.595 -12.416,-111.948 -37.247,-157.059c-24.831,-45.11 -58.975,-80.288 -102.43,-105.534c-43.455,-25.245 -92.497,-37.868 -147.126,-37.868c-54.629,0 -103.671,12.623 -147.126,37.868c-43.455,25.245 -77.598,60.423 -102.43,105.534c-24.831,45.11 -37.247,97.463 -37.247,157.059c0,58.768 12.416,110.914 37.247,156.438c24.831,45.524 58.975,81.116 102.43,106.775c43.455,25.659 92.497,38.489 147.126,38.489Z" style="fill:#fff;fill-rule:nonzero;"/></g></g></svg>